<svg width="77" height="24" viewBox="0 0 77 24" fill="none" xmlns="http://www.w3.org/2000/svg">
<path d="M2.75 18.65C2.34 18.65 2 18.31 2 17.9V12.2C1.95 9.48999 2.96 6.92999 4.84 5.00999C6.72 3.09999 9.24 2.04999 11.95 2.04999C17.49 2.04999 22 6.55999 22 12.1V17.8C22 18.21 21.66 18.55 21.25 18.55C20.84 18.55 20.5 18.21 20.5 17.8V12.1C20.5 7.38999 16.67 3.54999 11.95 3.54999C9.64 3.54999 7.5 4.43999 5.91 6.05999C4.31 7.68999 3.46 9.85999 3.5 12.18V17.89C3.5 18.31 3.17 18.65 2.75 18.65Z" fill="#F24E1E"/>
<path d="M5.94 12.45H5.81C3.71 12.45 2 14.16 2 16.26V18.14C2 20.24 3.71 21.95 5.81 21.95H5.94C8.04 21.95 9.75 20.24 9.75 18.14V16.26C9.75 14.16 8.04 12.45 5.94 12.45Z" fill="#F24E1E"/>
<path d="M18.19 12.45H18.06C15.96 12.45 14.25 14.16 14.25 16.26V18.14C14.25 20.24 15.96 21.95 18.06 21.95H18.19C20.29 21.95 22 20.24 22 18.14V16.26C22 14.16 20.29 12.45 18.19 12.45Z" fill="#F24E1E"/>
<path d="M35.048 16V8.584H32.048V7.54H39.284V8.584H36.284V16H35.048ZM39.2622 16V10.144H40.4382V11.548H40.3182C40.4462 11.068 40.6742 10.704 41.0022 10.456C41.3382 10.208 41.7822 10.064 42.3342 10.024L42.7302 10L42.8142 11.032L42.0822 11.104C41.5622 11.152 41.1662 11.316 40.8942 11.596C40.6222 11.876 40.4862 12.26 40.4862 12.748V16H39.2622ZM46.2007 16.108C45.6087 16.108 45.0967 15.984 44.6647 15.736C44.2407 15.488 43.9087 15.136 43.6687 14.68C43.4287 14.224 43.3087 13.688 43.3087 13.072C43.3087 12.448 43.4287 11.912 43.6687 11.464C43.9087 11.008 44.2407 10.656 44.6647 10.408C45.0967 10.16 45.6087 10.036 46.2007 10.036C46.7847 10.036 47.2887 10.16 47.7127 10.408C48.1447 10.656 48.4807 11.008 48.7207 11.464C48.9607 11.92 49.0807 12.456 49.0807 13.072C49.0807 13.688 48.9607 14.224 48.7207 14.68C48.4807 15.136 48.1447 15.488 47.7127 15.736C47.2887 15.984 46.7847 16.108 46.2007 16.108ZM46.1887 15.172C46.6927 15.172 47.0967 14.992 47.4007 14.632C47.7047 14.272 47.8567 13.752 47.8567 13.072C47.8567 12.384 47.7047 11.864 47.4007 11.512C47.0967 11.16 46.6927 10.984 46.1887 10.984C45.6927 10.984 45.2927 11.16 44.9887 11.512C44.6847 11.864 44.5327 12.384 44.5327 13.072C44.5327 13.752 44.6847 14.272 44.9887 14.632C45.2927 14.992 45.6927 15.172 46.1887 15.172ZM47.5207 10.828L46.8607 10.396V10.144C47.1647 10.136 47.4087 10.092 47.5927 10.012C47.7767 9.924 47.9087 9.784 47.9887 9.592C48.0687 9.4 48.1087 9.144 48.1087 8.824V8.608H49.1647V8.992C49.1647 9.344 49.0967 9.652 48.9607 9.916C48.8327 10.18 48.6447 10.392 48.3967 10.552C48.1567 10.712 47.8647 10.804 47.5207 10.828ZM45.5527 18.34V17.128H46.8247V18.34H45.5527ZM56.2462 18.268C55.7182 18.268 55.2262 18.204 54.7702 18.076C54.3142 17.948 53.9102 17.756 53.5582 17.5L53.9302 16.636C54.1622 16.788 54.3982 16.916 54.6382 17.02C54.8862 17.132 55.1342 17.212 55.3822 17.26C55.6382 17.308 55.8982 17.332 56.1622 17.332C56.7222 17.332 57.1422 17.188 57.4222 16.9C57.7022 16.62 57.8422 16.204 57.8422 15.652V14.428H57.9502C57.8302 14.868 57.5782 15.216 57.1942 15.472C56.8102 15.728 56.3662 15.856 55.8622 15.856C55.3342 15.856 54.8742 15.736 54.4822 15.496C54.0902 15.248 53.7862 14.908 53.5702 14.476C53.3542 14.036 53.2462 13.524 53.2462 12.94C53.2462 12.356 53.3542 11.848 53.5702 11.416C53.7862 10.984 54.0902 10.648 54.4822 10.408C54.8742 10.16 55.3342 10.036 55.8622 10.036C56.3742 10.036 56.8182 10.164 57.1942 10.42C57.5782 10.676 57.8262 11.024 57.9382 11.464H57.8422V10.144H59.0182V15.508C59.0182 16.116 58.9142 16.624 58.7062 17.032C58.4982 17.448 58.1862 17.756 57.7702 17.956C57.3622 18.164 56.8542 18.268 56.2462 18.268ZM56.1502 14.908C56.6702 14.908 57.0782 14.732 57.3742 14.38C57.6782 14.028 57.8302 13.548 57.8302 12.94C57.8302 12.34 57.6782 11.864 57.3742 11.512C57.0782 11.16 56.6702 10.984 56.1502 10.984C55.6382 10.984 55.2302 11.16 54.9262 11.512C54.6222 11.864 54.4702 12.34 54.4702 12.94C54.4702 13.548 54.6222 14.028 54.9262 14.38C55.2302 14.732 55.6382 14.908 56.1502 14.908ZM60.6112 8.788V7.528H62.0272V8.788H60.6112ZM60.7192 16V10.144H61.9312V16H60.7192ZM65.7252 16.108C65.2532 16.108 64.8572 16.02 64.5372 15.844C64.2252 15.668 63.9892 15.408 63.8292 15.064C63.6772 14.712 63.6012 14.272 63.6012 13.744V10.144H64.8132V13.756C64.8132 14.068 64.8532 14.328 64.9332 14.536C65.0212 14.744 65.1532 14.896 65.3292 14.992C65.5132 15.088 65.7412 15.136 66.0132 15.136C66.3172 15.136 66.5852 15.068 66.8172 14.932C67.0492 14.796 67.2292 14.6 67.3572 14.344C67.4852 14.088 67.5492 13.792 67.5492 13.456V10.144H68.7612V16H67.5852V14.716H67.7412C67.5812 15.164 67.3252 15.508 66.9732 15.748C66.6212 15.988 66.2052 16.108 65.7252 16.108ZM65.7732 9.352L67.0092 6.928H68.2452L66.6132 9.352H65.7732ZM70.4692 18.16V10.144H71.6572V11.464H71.5252C71.6532 11.032 71.9052 10.688 72.2812 10.432C72.6572 10.168 73.1012 10.036 73.6132 10.036C74.1332 10.036 74.5852 10.16 74.9692 10.408C75.3612 10.656 75.6612 11.004 75.8692 11.452C76.0852 11.9 76.1932 12.44 76.1932 13.072C76.1932 13.688 76.0852 14.228 75.8692 14.692C75.6612 15.148 75.3652 15.5 74.9812 15.748C74.5972 15.988 74.1412 16.108 73.6132 16.108C73.1092 16.108 72.6692 15.98 72.2932 15.724C71.9172 15.468 71.6652 15.128 71.5372 14.704H71.6812V18.16H70.4692ZM73.3132 15.172C73.8172 15.172 74.2172 14.992 74.5132 14.632C74.8172 14.272 74.9692 13.752 74.9692 13.072C74.9692 12.384 74.8172 11.864 74.5132 11.512C74.2172 11.16 73.8172 10.984 73.3132 10.984C72.8172 10.984 72.4172 11.16 72.1132 11.512C71.8092 11.864 71.6572 12.384 71.6572 13.072C71.6572 13.752 71.8092 14.272 72.1132 14.632C72.4172 14.992 72.8172 15.172 73.3132 15.172Z" fill="black"/>
</svg>
