<svg width="72" height="24" viewBox="0 0 72 24" fill="none" xmlns="http://www.w3.org/2000/svg">
<path d="M11.5 21C16.7467 21 21 16.7467 21 11.5C21 6.25329 16.7467 2 11.5 2C6.25329 2 2 6.25329 2 11.5C2 16.7467 6.25329 21 11.5 21Z" fill="#F24E1E"/>
<path d="M21.3 22C21.12 22 20.94 21.93 20.81 21.8L18.95 19.94C18.68 19.67 18.68 19.23 18.95 18.95C19.22 18.68 19.66 18.68 19.94 18.95L21.8 20.81C22.07 21.08 22.07 21.52 21.8 21.8C21.66 21.93 21.48 22 21.3 22Z" fill="#F24E1E"/>
<path d="M35.048 16V8.584H32.048V7.54H39.284V8.584H36.284V16H35.048ZM39.2622 16V10.144H40.4382V11.548H40.3182C40.4462 11.068 40.6742 10.704 41.0022 10.456C41.3382 10.208 41.7822 10.064 42.3342 10.024L42.7302 10L42.8142 11.032L42.0822 11.104C41.5622 11.152 41.1662 11.316 40.8942 11.596C40.6222 11.876 40.4862 12.26 40.4862 12.748V16H39.2622ZM45.5521 16.108C45.1441 16.108 44.7761 16.028 44.4481 15.868C44.1281 15.708 43.8761 15.492 43.6921 15.22C43.5081 14.948 43.4161 14.64 43.4161 14.296C43.4161 13.864 43.5241 13.524 43.7401 13.276C43.9641 13.02 44.3281 12.84 44.8321 12.736C45.3441 12.624 46.0321 12.568 46.8961 12.568H47.4601V13.312H46.9081C46.4761 13.312 46.1121 13.328 45.8161 13.36C45.5201 13.392 45.2841 13.444 45.1081 13.516C44.9321 13.58 44.8041 13.672 44.7241 13.792C44.6521 13.912 44.6161 14.056 44.6161 14.224C44.6161 14.528 44.7201 14.776 44.9281 14.968C45.1361 15.152 45.4241 15.244 45.7921 15.244C46.0881 15.244 46.3481 15.176 46.5721 15.04C46.7961 14.896 46.9721 14.704 47.1001 14.464C47.2361 14.224 47.3041 13.948 47.3041 13.636V12.256C47.3041 11.8 47.2081 11.472 47.0161 11.272C46.8241 11.072 46.5081 10.972 46.0681 10.972C45.7321 10.972 45.3961 11.024 45.0601 11.128C44.7241 11.224 44.3801 11.38 44.0281 11.596L43.6561 10.744C43.8641 10.6 44.1041 10.476 44.3761 10.372C44.6481 10.268 44.9321 10.188 45.2281 10.132C45.5321 10.068 45.8241 10.036 46.1041 10.036C46.6401 10.036 47.0801 10.12 47.4241 10.288C47.7761 10.456 48.0361 10.712 48.2041 11.056C48.3721 11.4 48.4561 11.844 48.4561 12.388V16H47.3161V14.692H47.4241C47.3601 14.988 47.2401 15.244 47.0641 15.46C46.8961 15.668 46.6841 15.828 46.4281 15.94C46.1721 16.052 45.8801 16.108 45.5521 16.108ZM55.8578 16.108C55.2578 16.108 54.7378 15.984 54.2978 15.736C53.8658 15.48 53.5298 15.124 53.2898 14.668C53.0498 14.204 52.9298 13.66 52.9298 13.036C52.9298 12.42 53.0498 11.888 53.2898 11.44C53.5298 10.992 53.8658 10.648 54.2978 10.408C54.7378 10.16 55.2578 10.036 55.8578 10.036C56.2258 10.036 56.5898 10.1 56.9498 10.228C57.3098 10.348 57.6058 10.524 57.8378 10.756L57.4538 11.608C57.2378 11.4 56.9938 11.248 56.7218 11.152C56.4498 11.048 56.1938 10.996 55.9538 10.996C55.3858 10.996 54.9458 11.176 54.6338 11.536C54.3298 11.888 54.1778 12.392 54.1778 13.048C54.1778 13.704 54.3298 14.22 54.6338 14.596C54.9458 14.964 55.3858 15.148 55.9538 15.148C56.1938 15.148 56.4498 15.1 56.7218 15.004C56.9938 14.9 57.2378 14.744 57.4538 14.536L57.8378 15.4C57.6058 15.616 57.3058 15.788 56.9378 15.916C56.5778 16.044 56.2178 16.108 55.8578 16.108ZM60.9673 16.108C60.4953 16.108 60.0993 16.02 59.7793 15.844C59.4673 15.668 59.2313 15.408 59.0713 15.064C58.9193 14.712 58.8433 14.272 58.8433 13.744V10.144H60.0553V13.756C60.0553 14.068 60.0953 14.328 60.1753 14.536C60.2633 14.744 60.3953 14.896 60.5713 14.992C60.7553 15.088 60.9833 15.136 61.2553 15.136C61.5593 15.136 61.8273 15.068 62.0593 14.932C62.2913 14.796 62.4713 14.6 62.5993 14.344C62.7273 14.088 62.7913 13.792 62.7913 13.456V10.144H64.0033V16H62.8273V14.716H62.9833C62.8233 15.164 62.5673 15.508 62.2153 15.748C61.8633 15.988 61.4473 16.108 60.9673 16.108ZM63.7393 10.828L63.0793 10.396V10.144C63.3833 10.136 63.6273 10.092 63.8113 10.012C63.9953 9.924 64.1273 9.784 64.2073 9.592C64.2873 9.4 64.3273 9.144 64.3273 8.824V8.608H65.3833V8.992C65.3833 9.344 65.3153 9.652 65.1793 9.916C65.0513 10.18 64.8633 10.392 64.6153 10.552C64.3753 10.712 64.0833 10.804 63.7393 10.828ZM61.0153 9.364L62.2513 6.94H63.4873L61.8553 9.364H61.0153ZM67.7994 16.108C67.3274 16.108 66.9314 16.02 66.6114 15.844C66.2994 15.668 66.0634 15.408 65.9034 15.064C65.7514 14.712 65.6754 14.272 65.6754 13.744V10.144H66.8874V13.756C66.8874 14.068 66.9274 14.328 67.0074 14.536C67.0954 14.744 67.2274 14.896 67.4034 14.992C67.5874 15.088 67.8154 15.136 68.0874 15.136C68.3914 15.136 68.6594 15.068 68.8914 14.932C69.1234 14.796 69.3034 14.6 69.4314 14.344C69.5594 14.088 69.6234 13.792 69.6234 13.456V10.144H70.8354V16H69.6594V14.716H69.8154C69.6554 15.164 69.3994 15.508 69.0474 15.748C68.6954 15.988 68.2794 16.108 67.7994 16.108Z" fill="black"/>
</svg>
