<svg width="66" height="24" viewBox="0 0 66 24" fill="none" xmlns="http://www.w3.org/2000/svg">
<path fill-rule="evenodd" clip-rule="evenodd" d="M22 12C22 6.477 17.523 2 12 2C6.477 2 2 6.477 2 12C2 16.991 5.657 21.128 10.438 21.878V14.891H7.898V12H10.438V9.797C10.438 7.291 11.93 5.907 14.215 5.907C15.309 5.907 16.453 6.102 16.453 6.102V8.562H15.193C13.95 8.562 13.563 9.333 13.563 10.124V12H16.336L15.893 14.89H13.563V21.878C18.343 21.128 22 16.991 22 12Z" fill="#F24E1E"/>
<path d="M36.944 16.108C36.024 16.108 35.248 15.936 34.616 15.592C33.984 15.24 33.504 14.74 33.176 14.092C32.856 13.444 32.696 12.672 32.696 11.776C32.696 10.88 32.86 10.108 33.188 9.46C33.524 8.812 34 8.312 34.616 7.96C35.24 7.608 35.988 7.432 36.86 7.432C37.26 7.432 37.64 7.472 38 7.552C38.36 7.624 38.692 7.736 38.996 7.888C39.308 8.04 39.58 8.228 39.812 8.452L39.368 9.424C38.992 9.104 38.6 8.876 38.192 8.74C37.792 8.596 37.348 8.524 36.86 8.524C35.924 8.524 35.212 8.808 34.724 9.376C34.236 9.936 33.992 10.736 33.992 11.776C33.992 12.84 34.244 13.648 34.748 14.2C35.252 14.752 36 15.028 36.992 15.028C37.352 15.028 37.704 14.996 38.048 14.932C38.4 14.86 38.736 14.76 39.056 14.632L38.804 15.256V12.46H36.74V11.524H39.848V15.508C39.616 15.628 39.336 15.732 39.008 15.82C38.688 15.908 38.348 15.976 37.988 16.024C37.636 16.08 37.288 16.108 36.944 16.108ZM41.6293 16V10.144H42.8053V11.548H42.6853C42.8133 11.068 43.0413 10.704 43.3693 10.456C43.7053 10.208 44.1493 10.064 44.7013 10.024L45.0973 10L45.1813 11.032L44.4493 11.104C43.9293 11.152 43.5333 11.316 43.2613 11.596C42.9893 11.876 42.8533 12.26 42.8533 12.748V16H41.6293ZM48.5679 16.108C47.9759 16.108 47.4639 15.984 47.0319 15.736C46.6079 15.488 46.2759 15.136 46.0359 14.68C45.7959 14.224 45.6759 13.688 45.6759 13.072C45.6759 12.448 45.7959 11.912 46.0359 11.464C46.2759 11.008 46.6079 10.656 47.0319 10.408C47.4639 10.16 47.9759 10.036 48.5679 10.036C49.1519 10.036 49.6559 10.16 50.0799 10.408C50.5119 10.656 50.8479 11.008 51.0879 11.464C51.3279 11.92 51.4479 12.456 51.4479 13.072C51.4479 13.688 51.3279 14.224 51.0879 14.68C50.8479 15.136 50.5119 15.488 50.0799 15.736C49.6559 15.984 49.1519 16.108 48.5679 16.108ZM48.5559 15.172C49.0599 15.172 49.4639 14.992 49.7679 14.632C50.0719 14.272 50.2239 13.752 50.2239 13.072C50.2239 12.384 50.0719 11.864 49.7679 11.512C49.4639 11.16 49.0599 10.984 48.5559 10.984C48.0599 10.984 47.6599 11.16 47.3559 11.512C47.0519 11.864 46.8999 12.384 46.8999 13.072C46.8999 13.752 47.0519 14.272 47.3559 14.632C47.6599 14.992 48.0599 15.172 48.5559 15.172ZM54.897 16.108C54.425 16.108 54.029 16.02 53.709 15.844C53.397 15.668 53.161 15.408 53.001 15.064C52.849 14.712 52.773 14.272 52.773 13.744V10.144H53.985V13.756C53.985 14.068 54.025 14.328 54.105 14.536C54.193 14.744 54.325 14.896 54.501 14.992C54.685 15.088 54.913 15.136 55.185 15.136C55.489 15.136 55.757 15.068 55.989 14.932C56.221 14.796 56.401 14.6 56.529 14.344C56.657 14.088 56.721 13.792 56.721 13.456V10.144H57.933V16H56.757V14.716H56.913C56.753 15.164 56.497 15.508 56.145 15.748C55.793 15.988 55.377 16.108 54.897 16.108ZM59.6411 18.16V10.144H60.8291V11.464H60.6971C60.8251 11.032 61.0771 10.688 61.4531 10.432C61.8291 10.168 62.2731 10.036 62.7851 10.036C63.3051 10.036 63.7571 10.16 64.1411 10.408C64.5331 10.656 64.8331 11.004 65.0411 11.452C65.2571 11.9 65.3651 12.44 65.3651 13.072C65.3651 13.688 65.2571 14.228 65.0411 14.692C64.8331 15.148 64.5371 15.5 64.1531 15.748C63.7691 15.988 63.3131 16.108 62.7851 16.108C62.2811 16.108 61.8411 15.98 61.4651 15.724C61.0891 15.468 60.8371 15.128 60.7091 14.704H60.8531V18.16H59.6411ZM62.4851 15.172C62.9891 15.172 63.3891 14.992 63.6851 14.632C63.9891 14.272 64.1411 13.752 64.1411 13.072C64.1411 12.384 63.9891 11.864 63.6851 11.512C63.3891 11.16 62.9891 10.984 62.4851 10.984C61.9891 10.984 61.5891 11.16 61.2851 11.512C60.9811 11.864 60.8291 12.384 60.8291 13.072C60.8291 13.752 60.9811 14.272 61.2851 14.632C61.5891 14.992 61.9891 15.172 62.4851 15.172Z" fill="black"/>
</svg>
